# xmcd
#
# Track frame offsets:
#	150
#	22832
#	48462
#	68950
#	88212
#	111025
#	129610
#	150560
#	171860
#	197580
#
# Disc length: 2844 seconds
#
# Revision: 1
# Processed by: cddbd v1.5.2PL0 Copyright (c) Steve Scherf et al.
# Submitted via: EZCDAudioConverter 8.0.2.1
#
DISCID=800b1a0a
DTITLE=Chế Linh - Nhạc Yêu Cầu 1
DYEAR=1992
DGENRE=Miscellaneous
TTITLE0=Chế Linh - Bướm trắng
TTITLE1=Chế Linh - Thiên Trang - Nếu chúng mình cách trở
TTITLE2=Chế Linh - Bến Giang Đầu
TTITLE3=Chế Linh - Nhớ màu hoa tím
TTITLE4=Chế Linh - Tình chàng ý thiếp
TTITLE5=Chế Linh - Xin gọi nhau là cố nhân
TTITLE6=Chế Linh - Thương hoài ngàn năm
TTITLE7=Chế Linh - Nhớ người yêu
TTITLE8=Chế Linh - Tâm sự người lính trẻ
TTITLE9=Chế Linh - Tiễn bước sang ngang
EXTD=
EXTT0=
EXTT1=
EXTT2=
EXTT3=
EXTT4=
EXTT5=
EXTT6=
EXTT7=
EXTT8=
EXTT9=
PLAYORDER=
